{
  "accessors": [
    {
      "bufferView": 2,
      "componentType": 5126,
      "count": 1833,
      "max": [
        2.661315441131592,
        0.3140000104904175,
        0.5664774179458618
      ],
      "min": [
        -0.021000003442168236,
        -0.3140000104904175,
        -1.1506515741348267
      ],
      "type": "VEC3"
    },
    {
      "bufferView": 2,
      "byteOffset": 21996,
      "componentType": 5126,
      "count": 1833,
      "max": [
        1.0,
        1.0,
        1.0
      ],
      "min": [
        -1.0,
        -1.0,
        -1.0
      ],
      "type": "VEC3"
    },
    {
      "bufferView": 1,
      "componentType": 5126,
      "count": 1833,
      "max": [
        0.9414061903953552,
        0.9375
      ],
      "min": [
        0.8281248807907104,
        0.19921875
      ],
      "type": "VEC2"
    },
    {
      "bufferView": 0,
      "componentType": 5125,
      "count": 7566,
      "type": "SCALAR"
    }
  ],
  "asset": {
    "extras": {
      "author": "lupas (https://sketchfab.com/ivan.anton.albarracin)",
      "license": "CC-BY-4.0 (http://creativecommons.org/licenses/by/4.0/)",
      "source": "https://sketchfab.com/3d-models/simple-low-poly-water-pump-c20301812957450bb1f2000eb952ebd4",
      "title": "simple low poly water pump"
    },
    "generator": "Sketchfab-15.22.0",
    "version": "2.0"
  },
  "bufferViews": [
    {
      "buffer": 0,
      "byteLength": 30264,
      "name": "floatBufferViews",
      "target": 34963
    },
    {
      "buffer": 0,
      "byteLength": 14664,
      "byteOffset": 30264,
      "byteStride": 8,
      "name": "floatBufferViews",
      "target": 34962
    },
    {
      "buffer": 0,
      "byteLength": 43992,
      "byteOffset": 44928,
      "byteStride": 12,
      "name": "floatBufferViews",
      "target": 34962
    }
  ],
  "buffers": [
    {
      "byteLength": 88920,
      "uri": "scene.bin"
    }
  ],
  "extensionsUsed": [
    "KHR_materials_specular"
  ],
  "images": [
    {
      "uri": "textures/water_pump_baseColor.png"
    }
  ],
  "materials": [
    {
      "doubleSided": true,
      "extensions": {
        "KHR_materials_specular": {
          "specularColorFactor": [
            1.0,
            1.0,
            1.0
          ],
          "specularFactor": 0.5165730028891516
        }
      },
      "name": "water_pump",
      "pbrMetallicRoughness": {
        "baseColorTexture": {
          "index": 0
        },
        "metallicFactor": 0.7725737830820055,
        "roughnessFactor": 0.8674821713278204
      }
    }
  ],
  "meshes": [
    {
      "name": "water_pump_water_pump_0",
      "primitives": [
        {
          "attributes": {
            "NORMAL": 1,
            "POSITION": 0,
            "TEXCOORD_0": 2
          },
          "indices": 3,
          "material": 0,
          "mode": 4
        }
      ]
    }
  ],
  "nodes": [
    {
      "children": [
        1
      ],
      "matrix": [
        1.0,
        0.0,
        0.0,
        0.0,
        0.0,
        2.220446049250313e-16,
        -1.0,
        0.0,
        0.0,
        1.0,
        2.220446049250313e-16,
        0.0,
        0.0,
        0.0,
        0.0,
        1.0
      ],
      "name": "Sketchfab_model"
    },
    {
      "children": [
        2
      ],
      "matrix": [
        1.0,
        0.0,
        0.0,
        0.0,
        0.0,
        0.0,
        1.0,
        0.0,
        0.0,
        -1.0,
        0.0,
        0.0,
        0.0,
        0.0,
        0.0,
        1.0
      ],
      "name": "water_pump.fbx"
    },
    {
      "children": [
        3
      ],
      "name": "RootNode"
    },
    {
      "children": [
        4
      ],
      "matrix": [
        -1.6292067961387602e-07,
        0.9999999999999868,
        1.7417784127327437e-14,
        0.0,
        -0.999999999999983,
        -1.6292067961387602e-07,
        8.742278367890311e-08,
        0.0,
        8.742278367890478e-08,
        -3.1748048207155317e-15,
        0.9999999999999962,
        0.0,
        0.0,
        0.0,
        0.0,
        1.0
      ],
      "name": "water_pump"
    },
    {
      "mesh": 0,
      "name": "water_pump_water_pump_0"
    }
  ],
  "samplers": [
    {
      "magFilter": 9729,
      "minFilter": 9987,
      "wrapS": 10497,
      "wrapT": 10497
    }
  ],
  "scene": 0,
  "scenes": [
    {
      "name": "Sketchfab_Scene",
      "nodes": [
        0
      ]
    }
  ],
  "textures": [
    {
      "sampler": 0,
      "source": 0
    }
  ]
}
