{
  "accessors": [
    {
      "bufferView": 1,
      "componentType": 5126,
      "count": 340,
      "max": [
        15.237569808959961,
        35.197879791259766,
        9.7475004196167
      ],
      "min": [
        -15.511199951171875,
        -37.74089050292969,
        -4.928800106048584
      ],
      "type": "VEC3"
    },
    {
      "bufferView": 1,
      "byteOffset": 4080,
      "componentType": 5126,
      "count": 340,
      "max": [
        1.0,
        1.0,
        1.0
      ],
      "min": [
        -1.0,
        -1.0,
        -1.0
      ],
      "type": "VEC3"
    },
    {
      "bufferView": 0,
      "componentType": 5125,
      "count": 510,
      "type": "SCALAR"
    },
    {
      "bufferView": 1,
      "byteOffset": 8160,
      "componentType": 5126,
      "count": 288,
      "max": [
        22.66227912902832,
        38.5157585144043,
        -0.7648599743843079
      ],
      "min": [
        -22.54916000366211,
        -38.60816955566406,
        -9.61559009552002
      ],
      "type": "VEC3"
    },
    {
      "bufferView": 1,
      "byteOffset": 11616,
      "componentType": 5126,
      "count": 288,
      "max": [
        0.9984622597694397,
        0.9999997615814209,
        0.7296294569969177
      ],
      "min": [
        -0.9984622597694397,
        -0.9999997615814209,
        -0.9999998807907104
      ],
      "type": "VEC3"
    },
    {
      "bufferView": 0,
      "byteOffset": 2040,
      "componentType": 5125,
      "count": 384,
      "type": "SCALAR"
    },
    {
      "bufferView": 1,
      "byteOffset": 15072,
      "componentType": 5126,
      "count": 144,
      "max": [
        18.292800903320313,
        40.22779846191406,
        -4.594250202178955
      ],
      "min": [
        -18.334949493408203,
        -40.58589172363281,
        -9.592289924621582
      ],
      "type": "VEC3"
    },
    {
      "bufferView": 1,
      "byteOffset": 16800,
      "componentType": 5126,
      "count": 144,
      "max": [
        1.0,
        1.0,
        1.0
      ],
      "min": [
        -1.0,
        -1.0,
        -1.0
      ],
      "type": "VEC3"
    },
    {
      "bufferView": 0,
      "byteOffset": 3576,
      "componentType": 5125,
      "count": 216,
      "type": "SCALAR"
    },
    {
      "bufferView": 1,
      "byteOffset": 18528,
      "componentType": 5126,
      "count": 192,
      "max": [
        15.480259895324707,
        37.5843391418457,
        17.25065040588379
      ],
      "min": [
        -15.306690216064453,
        -37.69712829589844,
        -20.24064064025879
      ],
      "type": "VEC3"
    },
    {
      "bufferView": 1,
      "byteOffset": 20832,
      "componentType": 5126,
      "count": 192,
      "max": [
        1.0,
        1.0,
        1.0
      ],
      "min": [
        -1.0,
        -1.0,
        -1.0
      ],
      "type": "VEC3"
    },
    {
      "bufferView": 0,
      "byteOffset": 4440,
      "componentType": 5125,
      "count": 288,
      "type": "SCALAR"
    },
    {
      "bufferView": 1,
      "byteOffset": 23136,
      "componentType": 5126,
      "count": 96,
      "max": [
        15.760479927062988,
        40.22779846191406,
        19.258380889892578
      ],
      "min": [
        -15.685759544372559,
        -40.58586120605469,
        10.34241008758545
      ],
      "type": "VEC3"
    },
    {
      "bufferView": 1,
      "byteOffset": 24288,
      "componentType": 5126,
      "count": 96,
      "max": [
        1.0,
        1.0,
        1.0
      ],
      "min": [
        -1.0,
        -1.0,
        -1.0
      ],
      "type": "VEC3"
    },
    {
      "bufferView": 0,
      "byteOffset": 5592,
      "componentType": 5125,
      "count": 168,
      "type": "SCALAR"
    },
    {
      "bufferView": 1,
      "byteOffset": 25440,
      "componentType": 5126,
      "count": 838,
      "max": [
        14.737059593200684,
        36.76813888549805,
        9.7475004196167
      ],
      "min": [
        -14.560230255126953,
        -36.9980583190918,
        3.577120065689087
      ],
      "type": "VEC3"
    },
    {
      "bufferView": 1,
      "byteOffset": 35496,
      "componentType": 5126,
      "count": 838,
      "max": [
        1.0,
        1.0,
        1.0
      ],
      "min": [
        -1.0,
        -1.0,
        -1.0
      ],
      "type": "VEC3"
    },
    {
      "bufferView": 0,
      "byteOffset": 6264,
      "componentType": 5125,
      "count": 1614,
      "type": "SCALAR"
    },
    {
      "bufferView": 1,
      "byteOffset": 45552,
      "componentType": 5126,
      "count": 432,
      "max": [
        15.237569808959961,
        40.44736099243164,
        -4.259699821472168
      ],
      "min": [
        -15.511199951171875,
        -40.3448600769043,
        -4.928800106048584
      ],
      "type": "VEC3"
    },
    {
      "bufferView": 1,
      "byteOffset": 50736,
      "componentType": 5126,
      "count": 432,
      "max": [
        1.0,
        1.0,
        1.0
      ],
      "min": [
        -1.0,
        -1.0,
        -1.0
      ],
      "type": "VEC3"
    },
    {
      "bufferView": 0,
      "byteOffset": 12720,
      "componentType": 5125,
      "count": 648,
      "type": "SCALAR"
    },
    {
      "bufferView": 1,
      "byteOffset": 55920,
      "componentType": 5126,
      "count": 652,
      "max": [
        18.291730880737305,
        40.22787857055664,
        17.25065040588379
      ],
      "min": [
        -18.336009979248047,
        -40.58580017089844,
        -20.24064064025879
      ],
      "type": "VEC3"
    },
    {
      "bufferView": 1,
      "byteOffset": 63744,
      "componentType": 5126,
      "count": 652,
      "max": [
        1.0,
        1.0,
        1.0
      ],
      "min": [
        -1.0,
        -1.0,
        -1.0
      ],
      "type": "VEC3"
    },
    {
      "bufferView": 0,
      "byteOffset": 15312,
      "componentType": 5125,
      "count": 978,
      "type": "SCALAR"
    },
    {
      "bufferView": 1,
      "byteOffset": 71568,
      "componentType": 5126,
      "count": 56,
      "max": [
        15.236499786376953,
        37.80194091796875,
        -4.259699821472168
      ],
      "min": [
        -15.512280464172363,
        -37.74081039428711,
        -4.259699821472168
      ],
      "type": "VEC3"
    },
    {
      "bufferView": 1,
      "byteOffset": 72240,
      "componentType": 5126,
      "count": 56,
      "max": [
        0.0,
        -0.0,
        1.0
      ],
      "min": [
        0.0,
        -0.0,
        1.0
      ],
      "type": "VEC3"
    },
    {
      "bufferView": 0,
      "byteOffset": 19224,
      "componentType": 5125,
      "count": 84,
      "type": "SCALAR"
    },
    {
      "bufferView": 1,
      "byteOffset": 72912,
      "componentType": 5126,
      "count": 384,
      "max": [
        22.661209106445313,
        40.22787094116211,
        19.258380889892578
      ],
      "min": [
        -22.550249099731445,
        -40.58578872680664,
        -9.61559009552002
      ],
      "type": "VEC3"
    },
    {
      "bufferView": 1,
      "byteOffset": 77520,
      "componentType": 5126,
      "count": 384,
      "max": [
        1.0,
        1.0,
        1.0
      ],
      "min": [
        -1.0,
        -1.0,
        -1.0
      ],
      "type": "VEC3"
    },
    {
      "bufferView": 0,
      "byteOffset": 19560,
      "componentType": 5125,
      "count": 552,
      "type": "SCALAR"
    },
    {
      "bufferView": 1,
      "byteOffset": 82128,
      "componentType": 5126,
      "count": 828,
      "max": [
        14.735989570617676,
        36.768211364746094,
        9.7475004196167
      ],
      "min": [
        -14.56128978729248,
        -36.99800109863281,
        3.577120065689087
      ],
      "type": "VEC3"
    },
    {
      "bufferView": 1,
      "byteOffset": 92064,
      "componentType": 5126,
      "count": 828,
      "max": [
        1.0,
        1.0,
        1.0
      ],
      "min": [
        -1.0,
        -1.0,
        -1.0
      ],
      "type": "VEC3"
    },
    {
      "bufferView": 0,
      "byteOffset": 21768,
      "componentType": 5125,
      "count": 1602,
      "type": "SCALAR"
    },
    {
      "bufferView": 1,
      "byteOffset": 102000,
      "componentType": 5126,
      "count": 408,
      "max": [
        15.236499786376953,
        40.44744110107422,
        -4.259699821472168
      ],
      "min": [
        -15.512280464172363,
        -40.344791412353516,
        -4.928800106048584
      ],
      "type": "VEC3"
    },
    {
      "bufferView": 1,
      "byteOffset": 106896,
      "componentType": 5126,
      "count": 408,
      "max": [
        1.0,
        1.0,
        1.0
      ],
      "min": [
        -1.0,
        -1.0,
        -1.0
      ],
      "type": "VEC3"
    },
    {
      "bufferView": 0,
      "byteOffset": 28176,
      "componentType": 5125,
      "count": 612,
      "type": "SCALAR"
    },
    {
      "bufferView": 1,
      "byteOffset": 111792,
      "componentType": 5126,
      "count": 260,
      "max": [
        15.479820251464844,
        40.22787857055664,
        17.25065040588379
      ],
      "min": [
        -15.307109832763672,
        -40.58580017089844,
        -20.24064064025879
      ],
      "type": "VEC3"
    },
    {
      "bufferView": 1,
      "byteOffset": 114912,
      "componentType": 5126,
      "count": 260,
      "max": [
        1.0,
        1.0,
        1.0
      ],
      "min": [
        -1.0,
        -1.0,
        -1.0
      ],
      "type": "VEC3"
    },
    {
      "bufferView": 0,
      "byteOffset": 30624,
      "componentType": 5125,
      "count": 390,
      "type": "SCALAR"
    },
    {
      "bufferView": 1,
      "byteOffset": 118032,
      "componentType": 5126,
      "count": 408,
      "max": [
        18.292369842529297,
        37.80194091796875,
        -4.259699821472168
      ],
      "min": [
        -18.335369110107422,
        -37.74081039428711,
        -9.592289924621582
      ],
      "type": "VEC3"
    },
    {
      "bufferView": 1,
      "byteOffset": 122928,
      "componentType": 5126,
      "count": 408,
      "max": [
        1.0,
        1.0,
        1.0
      ],
      "min": [
        -1.0,
        -1.0,
        -1.0
      ],
      "type": "VEC3"
    },
    {
      "bufferView": 0,
      "byteOffset": 32184,
      "componentType": 5125,
      "count": 612,
      "type": "SCALAR"
    },
    {
      "bufferView": 1,
      "byteOffset": 127824,
      "componentType": 5126,
      "count": 432,
      "max": [
        15.237130165100098,
        40.44744110107422,
        -4.259699821472168
      ],
      "min": [
        -15.511630058288574,
        -40.344791412353516,
        -4.928800106048584
      ],
      "type": "VEC3"
    },
    {
      "bufferView": 1,
      "byteOffset": 133008,
      "componentType": 5126,
      "count": 432,
      "max": [
        1.0,
        1.0,
        1.0
      ],
      "min": [
        -1.0,
        -1.0,
        -1.0
      ],
      "type": "VEC3"
    },
    {
      "bufferView": 0,
      "byteOffset": 34632,
      "componentType": 5125,
      "count": 648,
      "type": "SCALAR"
    },
    {
      "bufferView": 1,
      "byteOffset": 138192,
      "componentType": 5126,
      "count": 96,
      "max": [
        15.760049819946289,
        40.22787094116211,
        19.258380889892578
      ],
      "min": [
        -15.686189651489258,
        -40.58578872680664,
        10.34241008758545
      ],
      "type": "VEC3"
    },
    {
      "bufferView": 1,
      "byteOffset": 139344,
      "componentType": 5126,
      "count": 96,
      "max": [
        1.0,
        1.0,
        1.0
      ],
      "min": [
        -1.0,
        -1.0,
        -1.0
      ],
      "type": "VEC3"
    },
    {
      "bufferView": 0,
      "byteOffset": 37224,
      "componentType": 5125,
      "count": 168,
      "type": "SCALAR"
    },
    {
      "bufferView": 1,
      "byteOffset": 140496,
      "componentType": 5126,
      "count": 1134,
      "max": [
        22.6618595123291,
        38.515830993652344,
        9.7475004196167
      ],
      "min": [
        -22.549589157104492,
        -38.608089447021484,
        -9.61559009552002
      ],
      "type": "VEC3"
    },
    {
      "bufferView": 1,
      "byteOffset": 154104,
      "componentType": 5126,
      "count": 1134,
      "max": [
        1.0,
        1.0,
        1.0
      ],
      "min": [
        -1.0,
        -1.0,
        -1.0
      ],
      "type": "VEC3"
    },
    {
      "bufferView": 0,
      "byteOffset": 37896,
      "componentType": 5125,
      "count": 2010,
      "type": "SCALAR"
    }
  ],
  "asset": {
    "extras": {
      "author": "Larolei Low Poly (https://sketchfab.com/strix567)",
      "license": "CC-BY-NC-4.0 (http://creativecommons.org/licenses/by-nc/4.0/)",
      "source": "https://sketchfab.com/3d-models/wooden-bridge-low-poly-5c232ba397c542f98babd2ef95941336",
      "title": "Wooden Bridge (Low Poly)"
    },
    "generator": "Sketchfab-12.63.0",
    "version": "2.0"
  },
  "bufferViews": [
    {
      "buffer": 0,
      "byteLength": 45936,
      "name": "floatBufferViews",
      "target": 34963
    },
    {
      "buffer": 0,
      "byteLength": 167712,
      "byteOffset": 45936,
      "byteStride": 12,
      "name": "floatBufferViews",
      "target": 34962
    }
  ],
  "buffers": [
    {
      "byteLength": 213648,
      "uri": "scene.bin"
    }
  ],
  "materials": [
    {
      "doubleSided": true,
      "name": "Cube.012_0",
      "pbrMetallicRoughness": {
        "baseColorFactor": [
          0.783914465286133,
          0.6662306062225487,
          0.6086570116792747,
          1.0
        ],
        "metallicFactor": 0.0,
        "roughnessFactor": 0.6
      }
    },
    {
      "doubleSided": true,
      "name": "bridge_wood10",
      "pbrMetallicRoughness": {
        "baseColorFactor": [
          0.14239962399005884,
          0.12197131663560862,
          0.10444594919681541,
          1.0
        ],
        "metallicFactor": 0.0,
        "roughnessFactor": 0.6
      }
    },
    {
      "doubleSided": true,
      "name": "bridge02",
      "pbrMetallicRoughness": {
        "baseColorFactor": [
          0.2810089886188507,
          0.23695024847984314,
          0.19471940398216248,
          1.0
        ],
        "metallicFactor": 0.0,
        "roughnessFactor": 0.6
      }
    },
    {
      "doubleSided": true,
      "name": "bridge_wood12",
      "pbrMetallicRoughness": {
        "baseColorFactor": [
          0.2202530652284622,
          0.2144229710102081,
          0.18171441555023196,
          1.0
        ],
        "metallicFactor": 0.0,
        "roughnessFactor": 0.6
      }
    },
    {
      "doubleSided": true,
      "name": "bridge_wood07",
      "pbrMetallicRoughness": {
        "baseColorFactor": [
          0.5173322558403015,
          0.41569486260414124,
          0.29056137800216675,
          1.0
        ],
        "metallicFactor": 0.0,
        "roughnessFactor": 0.6
      }
    },
    {
      "doubleSided": true,
      "name": "bridge_wood06",
      "pbrMetallicRoughness": {
        "baseColorFactor": [
          0.1733546108007431,
          0.10811866074800491,
          0.06008223816752434,
          1.0
        ],
        "metallicFactor": 0.0,
        "roughnessFactor": 0.6
      }
    },
    {
      "doubleSided": true,
      "name": "bridge_wood04",
      "pbrMetallicRoughness": {
        "baseColorFactor": [
          0.1282387673854828,
          0.04904435202479361,
          0.028426514938473688,
          1.0
        ],
        "metallicFactor": 0.0,
        "roughnessFactor": 0.6
      }
    },
    {
      "doubleSided": true,
      "name": "bridge_wood05",
      "pbrMetallicRoughness": {
        "baseColorFactor": [
          0.0800020918250084,
          0.033091202378273024,
          0.017123427242040634,
          1.0
        ],
        "metallicFactor": 0.0,
        "roughnessFactor": 0.6
      }
    },
    {
      "doubleSided": true,
      "name": "brige_wood_09",
      "pbrMetallicRoughness": {
        "baseColorFactor": [
          0.15232433378696436,
          0.06489863246679303,
          0.03836526721715927,
          1.0
        ],
        "metallicFactor": 0.0,
        "roughnessFactor": 0.6
      }
    },
    {
      "doubleSided": true,
      "name": "bridge_wood_01",
      "pbrMetallicRoughness": {
        "baseColorFactor": [
          0.17886027693748474,
          0.13265877962112427,
          0.08289181441068649,
          1.0
        ],
        "metallicFactor": 0.0,
        "roughnessFactor": 0.6
      }
    },
    {
      "doubleSided": true,
      "name": "bridge_wood02",
      "pbrMetallicRoughness": {
        "baseColorFactor": [
          0.06372037529945372,
          0.03232935443520546,
          0.03456748276948928,
          1.0
        ],
        "metallicFactor": 0.0,
        "roughnessFactor": 0.6
      }
    },
    {
      "doubleSided": true,
      "name": "bridge_wood_03",
      "pbrMetallicRoughness": {
        "baseColorFactor": [
          0.09462535381317133,
          0.04438349232077598,
          0.031158400699496273,
          1.0
        ],
        "metallicFactor": 0.0,
        "roughnessFactor": 0.6
      }
    },
    {
      "doubleSided": true,
      "name": "bridge_wood08",
      "pbrMetallicRoughness": {
        "baseColorFactor": [
          0.2597978413105011,
          0.18814997375011444,
          0.12117026001214981,
          1.0
        ],
        "metallicFactor": 0.0,
        "roughnessFactor": 0.6
      }
    }
  ],
  "meshes": [
    {
      "name": "Cube.010_0",
      "primitives": [
        {
          "attributes": {
            "NORMAL": 1,
            "POSITION": 0
          },
          "indices": 2,
          "material": 9,
          "mode": 4
        }
      ]
    },
    {
      "name": "Cube.010_1",
      "primitives": [
        {
          "attributes": {
            "NORMAL": 4,
            "POSITION": 3
          },
          "indices": 5,
          "material": 10,
          "mode": 4
        }
      ]
    },
    {
      "name": "Cube.010_2",
      "primitives": [
        {
          "attributes": {
            "NORMAL": 7,
            "POSITION": 6
          },
          "indices": 8,
          "material": 11,
          "mode": 4
        }
      ]
    },
    {
      "name": "Cube.010_3",
      "primitives": [
        {
          "attributes": {
            "NORMAL": 10,
            "POSITION": 9
          },
          "indices": 11,
          "material": 6,
          "mode": 4
        }
      ]
    },
    {
      "name": "Cube.010_4",
      "primitives": [
        {
          "attributes": {
            "NORMAL": 13,
            "POSITION": 12
          },
          "indices": 14,
          "material": 7,
          "mode": 4
        }
      ]
    },
    {
      "name": "Cube.010_5",
      "primitives": [
        {
          "attributes": {
            "NORMAL": 16,
            "POSITION": 15
          },
          "indices": 17,
          "material": 4,
          "mode": 4
        }
      ]
    },
    {
      "name": "Cube.010_6",
      "primitives": [
        {
          "attributes": {
            "NORMAL": 19,
            "POSITION": 18
          },
          "indices": 20,
          "material": 12,
          "mode": 4
        }
      ]
    },
    {
      "name": "Cube.011_0",
      "primitives": [
        {
          "attributes": {
            "NORMAL": 22,
            "POSITION": 21
          },
          "indices": 23,
          "material": 5,
          "mode": 4
        }
      ]
    },
    {
      "name": "Cube.011_1",
      "primitives": [
        {
          "attributes": {
            "NORMAL": 25,
            "POSITION": 24
          },
          "indices": 26,
          "material": 6,
          "mode": 4
        }
      ]
    },
    {
      "name": "Cube.011_2",
      "primitives": [
        {
          "attributes": {
            "NORMAL": 28,
            "POSITION": 27
          },
          "indices": 29,
          "material": 7,
          "mode": 4
        }
      ]
    },
    {
      "name": "Cube.011_3",
      "primitives": [
        {
          "attributes": {
            "NORMAL": 31,
            "POSITION": 30
          },
          "indices": 32,
          "material": 4,
          "mode": 4
        }
      ]
    },
    {
      "name": "Cube.011_4",
      "primitives": [
        {
          "attributes": {
            "NORMAL": 34,
            "POSITION": 33
          },
          "indices": 35,
          "material": 8,
          "mode": 4
        }
      ]
    },
    {
      "name": "Cube.012_0",
      "primitives": [
        {
          "attributes": {
            "NORMAL": 37,
            "POSITION": 36
          },
          "indices": 38,
          "material": 0,
          "mode": 4
        }
      ]
    },
    {
      "name": "Cube.012_2",
      "primitives": [
        {
          "attributes": {
            "NORMAL": 40,
            "POSITION": 39
          },
          "indices": 41,
          "material": 2,
          "mode": 4
        }
      ]
    },
    {
      "name": "Cube.012_4",
      "primitives": [
        {
          "attributes": {
            "NORMAL": 43,
            "POSITION": 42
          },
          "indices": 44,
          "material": 3,
          "mode": 4
        }
      ]
    },
    {
      "name": "Cube.012_5",
      "primitives": [
        {
          "attributes": {
            "NORMAL": 46,
            "POSITION": 45
          },
          "indices": 47,
          "material": 4,
          "mode": 4
        }
      ]
    },
    {
      "name": "Cube.012_1",
      "primitives": [
        {
          "attributes": {
            "NORMAL": 49,
            "POSITION": 48
          },
          "indices": 50,
          "material": 1,
          "mode": 4
        }
      ]
    }
  ],
  "nodes": [
    {
      "children": [
        1
      ],
      "matrix": [
        1.0,
        0.0,
        0.0,
        0.0,
        0.0,
        2.220446049250313e-16,
        -1.0,
        0.0,
        0.0,
        1.0,
        2.220446049250313e-16,
        0.0,
        0.0,
        0.0,
        0.0,
        1.0
      ],
      "name": "Sketchfab_model"
    },
    {
      "children": [
        2,
        10,
        16
      ],
      "name": "Root"
    },
    {
      "children": [
        3,
        4,
        5,
        6,
        7,
        8,
        9
      ],
      "matrix": [
        0.14889000000000002,
        0.0,
        0.0,
        0.0,
        0.0,
        0.14889000000000002,
        0.0,
        0.0,
        0.0,
        0.0,
        0.14889000000000002,
        0.0,
        10.96881,
        -0.38564000000000004,
        1.08809,
        1.0
      ],
      "name": "Cube.010"
    },
    {
      "mesh": 0,
      "name": "Cube.010_0"
    },
    {
      "mesh": 1,
      "name": "Cube.010_1"
    },
    {
      "mesh": 2,
      "name": "Cube.010_2"
    },
    {
      "mesh": 3,
      "name": "Cube.010_3"
    },
    {
      "mesh": 4,
      "name": "Cube.010_4"
    },
    {
      "mesh": 5,
      "name": "Cube.010_5"
    },
    {
      "mesh": 6,
      "name": "Cube.010_6"
    },
    {
      "children": [
        11,
        12,
        13,
        14,
        15
      ],
      "matrix": [
        0.14889000000000002,
        0.0,
        0.0,
        0.0,
        0.0,
        0.14889000000000002,
        0.0,
        0.0,
        0.0,
        0.0,
        0.14889000000000002,
        0.0,
        -10.046809999999999,
        -0.39210000000000006,
        0.8329000000000001,
        1.0
      ],
      "name": "Cube.011"
    },
    {
      "mesh": 7,
      "name": "Cube.011_0"
    },
    {
      "mesh": 8,
      "name": "Cube.011_1"
    },
    {
      "mesh": 9,
      "name": "Cube.011_2"
    },
    {
      "mesh": 10,
      "name": "Cube.011_3"
    },
    {
      "mesh": 11,
      "name": "Cube.011_4"
    },
    {
      "children": [
        17,
        18,
        19,
        20,
        21
      ],
      "matrix": [
        0.14889000000000002,
        0.0,
        0.0,
        0.0,
        0.0,
        0.14889000000000002,
        0.0,
        0.0,
        0.0,
        0.0,
        0.14889000000000002,
        0.0,
        0.46998000000000006,
        0.19805000000000003,
        0.8329000000000001,
        1.0
      ],
      "name": "Cube.012"
    },
    {
      "mesh": 12,
      "name": "Cube.012_0"
    },
    {
      "mesh": 13,
      "name": "Cube.012_2"
    },
    {
      "mesh": 14,
      "name": "Cube.012_4"
    },
    {
      "mesh": 15,
      "name": "Cube.012_5"
    },
    {
      "mesh": 16,
      "name": "Cube.012_1"
    }
  ],
  "scene": 0,
  "scenes": [
    {
      "name": "Sketchfab_Scene",
      "nodes": [
        0
      ]
    }
  ]
}
